# xmcd
#
# Track frame offsets: 
#        150
#        21582
#        44436
#        61571
#        79390
#        98125
#        120876
#        137879
#        158394
#        178460
#
# Disc length: 2575 seconds
#
# Revision: 0
# Processed by: cddbd v1.5.1PL2 Copyright (c) Steve Scherf et al.
# Submitted via: ExactAudioCopy v0.90b4
#
DISCID=7e0a0d0a
DTITLE=Mustafa Cihat - Amenna
DYEAR=2005
DGENRE=Ezgi
TTITLE0=Amenna
TTITLE1=Ne güzel
TTITLE2=Seni anlatamam
TTITLE3=Sadýk ol
TTITLE4=Dünya
TTITLE5=Gülmeyenler bahçesi
TTITLE6=Gördük ki
TTITLE7=Emanet
TTITLE8=Üç yaralý gelincik çiçeði
TTITLE9=Gece yolcularýna
EXTD=
EXTT0=
EXTT1=
EXTT2=
EXTT3=
EXTT4=
EXTT5=
EXTT6=
EXTT7=
EXTT8=
EXTT9=
PLAYORDER=
